<svg width="68" height="64" viewBox="0 0 68 64" fill="none" xmlns="http://www.w3.org/2000/svg">
<path d="M58.8828 11L64.7852 15.5868C66.3852 16.9735 66.3852 19.2132 64.7852 20.5998L58.8828 25.1866" stroke="#C6D0F5" stroke-width="4" stroke-linecap="round" stroke-linejoin="round"/>
<path d="M66 18.1104H51.7778C47.2978 18.1104 43.1024 20.208 40.4002 23.7992L27.5998 40.866C24.8976 44.4571 20.7022 46.5548 16.2222 46.5548H2" stroke="#C6D0F5" stroke-width="4" stroke-linecap="round" stroke-linejoin="round"/>
<path d="M58.8828 53.6661L64.7852 49.0793C66.3852 47.6927 66.3852 45.453 64.7852 44.0663L58.8828 39.4795" stroke="#C6D0F5" stroke-width="4" stroke-linecap="round" stroke-linejoin="round"/>
<path d="M66 46.5558H51.7778C47.2978 46.5558 43.1024 44.4581 40.4002 40.867L27.5998 23.8001C24.8976 20.209 20.7022 18.1113 16.2222 18.1113H2" stroke="#C6D0F5" stroke-width="4" stroke-linecap="round" stroke-linejoin="round"/>
</svg>
