<svg width="68" height="68" viewBox="0 0 68 68" fill="none" xmlns="http://www.w3.org/2000/svg">
<path d="M58 12H10C5.58172 12 2 14.4065 2 17.375V49.625C2 52.5935 5.58172 55 10 55H58C62.4183 55 66 52.5935 66 49.625V17.375C66 14.4065 62.4183 12 58 12Z" fill="#414559" stroke="#C6D0F5" stroke-width="4" stroke-linecap="round" stroke-linejoin="round" stroke-dasharray="6 6"/>
<path d="M2 10L2 58C2 62.4183 5.58172 66 10 66H58C62.4183 66 66 62.4183 66 58V10C66 5.58172 62.4183 2 58 2H10C5.58172 2 2 5.58172 2 10Z" stroke="#C6D0F5" stroke-width="4" stroke-linecap="round" stroke-linejoin="round"/>
<path d="M41.5625 27.7483C44.531 27.7483 46.9375 25.3422 46.9375 22.3741C46.9375 19.4061 44.531 17 41.5625 17C38.594 17 36.1875 19.4061 36.1875 22.3741C36.1875 25.3422 38.594 27.7483 41.5625 27.7483Z" stroke="#C6D0F5" stroke-width="3" stroke-linecap="round" stroke-linejoin="round"/>
<path d="M12 36.4746L15.1511 33.4583C19.3503 29.4345 26.1564 29.4345 30.3556 33.4583L49.6317 51.9386" stroke="#C6D0F5" stroke-width="3" stroke-linecap="round" stroke-linejoin="round"/>
<path d="M39.1484 39.9515C43.3477 35.9276 50.1538 35.9276 54.353 39.9515L54.9248 40.4998" stroke="#C6D0F5" stroke-width="3" stroke-linecap="round" stroke-linejoin="round"/>
</svg>
