<svg width="66" height="67" viewBox="0 0 66 67" fill="none" xmlns="http://www.w3.org/2000/svg">
<path d="M43.4999 64.9998H57.5694C58.2333 64.9998 58.5653 64.9998 58.8194 64.9738C61.728 64.6758 63.7592 61.9626 63.226 59.0879C63.1794 58.8367 63.0856 58.5173 62.8981 57.8786L62.8981 57.8785C60.0848 48.2943 55.0277 31.0056 51.4711 18.4999C50.3054 14.4011 49.4628 10.9209 48.5 8.00036C47.5215 5.03214 47.5 4 46 3.0006C42.5081 0.674096 37.9499 2.68321 37.9499 7.11046V18.4999V59.4498C37.9499 59.9606 37.9499 60.216 37.9686 60.4313C38.1782 62.852 40.0978 64.7715 42.5185 64.9812C42.7338 64.9998 42.9892 64.9998 43.4999 64.9998Z" fill="#CCD0DA" stroke="#4C4F69" stroke-width="4" stroke-linecap="round" stroke-linejoin="round" stroke-dasharray="6 6"/>
<path d="M22.4922 64.9998H8.4228C7.75886 64.9998 7.42688 64.9998 7.17275 64.9738C4.26421 64.6758 2.23294 61.9626 2.76622 59.0879C2.81281 58.8367 2.90656 58.5173 3.09406 57.8786L3.09407 57.8785C5.90743 48.2943 10.9645 31.0056 14.5211 18.4999C15.6868 14.4011 16.5294 10.9209 17.4922 8.00036C18.4707 5.03214 18.4922 4 19.9922 3.0006C23.484 0.674096 28.0423 2.68321 28.0423 7.11046V18.4999V59.4498C28.0423 59.9606 28.0423 60.216 28.0236 60.4313C27.8139 62.852 25.8944 64.7715 23.4737 64.9812C23.2584 64.9998 23.003 64.9998 22.4922 64.9998Z" stroke="#4C4F69" stroke-width="4" stroke-linecap="round" stroke-linejoin="round"/>
</svg>
