<svg width="68" height="68" viewBox="0 0 68 68" fill="none" xmlns="http://www.w3.org/2000/svg">
<path d="M13.6667 2H4.33333C3.04467 2 2 3.04467 2 4.33333V13.6667C2 14.9553 3.04467 16 4.33333 16H13.6667C14.9553 16 16 14.9553 16 13.6667V4.33333C16 3.04467 14.9553 2 13.6667 2Z" stroke="#CAD3F5" stroke-width="4" stroke-linecap="round" stroke-linejoin="round"/>
<path d="M13.6667 27H4.33333C3.04467 27 2 28.0447 2 29.3333V38.6667C2 39.9553 3.04467 41 4.33333 41H13.6667C14.9553 41 16 39.9553 16 38.6667V29.3333C16 28.0447 14.9553 27 13.6667 27Z" stroke="#CAD3F5" stroke-width="4" stroke-linecap="round" stroke-linejoin="round"/>
<path d="M13.6667 52H4.33333C3.04467 52 2 53.0447 2 54.3333V63.6667C2 64.9553 3.04467 66 4.33333 66H13.6667C14.9553 66 16 64.9553 16 63.6667V54.3333C16 53.0447 14.9553 52 13.6667 52Z" stroke="#CAD3F5" stroke-width="4" stroke-linecap="round" stroke-linejoin="round"/>
<path d="M38.6667 2H29.3333C28.0447 2 27 3.04467 27 4.33333V13.6667C27 14.9553 28.0447 16 29.3333 16H38.6667C39.9553 16 41 14.9553 41 13.6667V4.33333C41 3.04467 39.9553 2 38.6667 2Z" stroke="#CAD3F5" stroke-width="4" stroke-linecap="round" stroke-linejoin="round"/>
<path d="M38.6667 27H29.3333C28.0447 27 27 28.0447 27 29.3333V38.6667C27 39.9553 28.0447 41 29.3333 41H38.6667C39.9553 41 41 39.9553 41 38.6667V29.3333C41 28.0447 39.9553 27 38.6667 27Z" stroke="#CAD3F5" stroke-width="4" stroke-linecap="round" stroke-linejoin="round"/>
<path d="M38.6667 52H29.3333C28.0447 52 27 53.0447 27 54.3333V63.6667C27 64.9553 28.0447 66 29.3333 66H38.6667C39.9553 66 41 64.9553 41 63.6667V54.3333C41 53.0447 39.9553 52 38.6667 52Z" stroke="#CAD3F5" stroke-width="4" stroke-linecap="round" stroke-linejoin="round"/>
<path d="M63.6667 2H54.3333C53.0447 2 52 3.04467 52 4.33333V13.6667C52 14.9553 53.0447 16 54.3333 16H63.6667C64.9553 16 66 14.9553 66 13.6667V4.33333C66 3.04467 64.9553 2 63.6667 2Z" stroke="#CAD3F5" stroke-width="4" stroke-linecap="round" stroke-linejoin="round"/>
<path d="M63.6667 27H54.3333C53.0447 27 52 28.0447 52 29.3333V38.6667C52 39.9553 53.0447 41 54.3333 41H63.6667C64.9553 41 66 39.9553 66 38.6667V29.3333C66 28.0447 64.9553 27 63.6667 27Z" stroke="#CAD3F5" stroke-width="4" stroke-linecap="round" stroke-linejoin="round"/>
<path d="M63.6667 52H54.3333C53.0447 52 52 53.0447 52 54.3333V63.6667C52 64.9553 53.0447 66 54.3333 66H63.6667C64.9553 66 66 64.9553 66 63.6667V54.3333C66 53.0447 64.9553 52 63.6667 52Z" stroke="#CAD3F5" stroke-width="4" stroke-linecap="round" stroke-linejoin="round"/>
</svg>
