<svg width="68" height="68" viewBox="0 0 68 68" fill="none" xmlns="http://www.w3.org/2000/svg">
<path d="M2 10L2 58C2 62.4183 5.58172 66 10 66H58C62.4183 66 66 62.4183 66 58V10C66 5.58172 62.4183 2 58 2H10C5.58172 2 2 5.58172 2 10Z" stroke="#CDD6F4" stroke-width="4" stroke-linecap="round" stroke-linejoin="round"/>
<path d="M17.375 54.998L49.625 54.998C52.5935 54.998 55 52.592 55 49.6239L55 17.3791C55 14.4111 52.5935 12.005 49.625 12.005L17.375 12.005C14.4065 12.005 12 14.4111 12 17.3791L12 49.6239C12 52.592 14.4065 54.998 17.375 54.998Z" fill="#313244"/>
<path d="M41.5625 30.8147C44.531 30.8147 46.9375 28.4086 46.9375 25.4405C46.9375 22.4725 44.531 20.0664 41.5625 20.0664C38.594 20.0664 36.1875 22.4725 36.1875 25.4405C36.1875 28.4086 38.594 30.8147 41.5625 30.8147Z" fill="#313244" stroke="#CDD6F4" stroke-width="3" stroke-linecap="round" stroke-linejoin="round"/>
<path d="M39.1484 43.013C43.3477 38.9891 50.1538 38.9891 54.353 43.013L54.9248 43.5613" stroke="#CDD6F4" stroke-width="3" stroke-linecap="round" stroke-linejoin="round"/>
<path d="M12 39.541L15.1511 36.5247C19.3503 32.5009 26.1564 32.5009 30.3556 36.5247L49.6317 55.0051" fill="#313244"/>
<path d="M12 39.541L15.1511 36.5247C19.3503 32.5009 26.1564 32.5009 30.3556 36.5247L49.6317 55.0051" stroke="#CDD6F4" stroke-width="3" stroke-linecap="round" stroke-linejoin="round"/>
<path d="M12 17.375L12 49.625C12 52.5935 14.4065 55 17.375 55H49.625C52.5935 55 55 52.5935 55 49.625V17.375C55 14.4065 52.5935 12 49.625 12H17.375C14.4065 12 12 14.4065 12 17.375Z" stroke="#CDD6F4" stroke-width="4" stroke-linecap="round" stroke-linejoin="round" stroke-dasharray="6 6"/>
</svg>
