<svg width="68" height="68" viewBox="0 0 68 68" fill="none" xmlns="http://www.w3.org/2000/svg">
<path d="M29.9263 57.8526C45.3496 57.8526 57.8526 45.3496 57.8526 29.9263C57.8526 14.503 45.3496 2 29.9263 2C14.503 2 2 14.503 2 29.9263C2 45.3496 14.503 57.8526 29.9263 57.8526Z" stroke="#C6D0F5" stroke-width="4" stroke-linecap="round" stroke-linejoin="round"/>
<path d="M49.7578 49.7607L65.9966 65.9995" stroke="#C6D0F5" stroke-width="4" stroke-linecap="round" stroke-linejoin="round"/>
<path d="M16.3203 26.7139V19.7861C16.3203 17.8723 17.8701 16.3223 19.7835 16.3223H26.7098" stroke="#C6D0F5" stroke-width="4" stroke-linecap="round" stroke-linejoin="round"/>
<path d="M44.0301 26.7139V19.7861C44.0301 17.8723 42.4803 16.3223 40.5669 16.3223H33.6406" stroke="#C6D0F5" stroke-width="4" stroke-linecap="round" stroke-linejoin="round"/>
<path d="M16.3203 33.6416V40.5693C16.3203 42.4831 17.8701 44.0332 19.7835 44.0332H26.7098" stroke="#C6D0F5" stroke-width="4" stroke-linecap="round" stroke-linejoin="round"/>
<path d="M44.0301 33.6416V40.5693C44.0301 42.4831 42.4803 44.0332 40.5669 44.0332H33.6406" stroke="#C6D0F5" stroke-width="4" stroke-linecap="round" stroke-linejoin="round"/>
</svg>
