<svg width="64" height="68" viewBox="0 0 64 68" fill="none" xmlns="http://www.w3.org/2000/svg">
<path d="M49.6823 17.8299L55.2911 12.0094C57.5696 9.71653 57.5696 6.0126 55.2911 3.71968C53.0125 1.42677 49.3318 1.42677 47.0532 3.71968L41.2692 9.36378C38.2895 7.6 34.4335 7.95276 31.8044 10.5984L29 13.4205L45.4757 30L48.2801 27.178C51.0845 24.7087 51.4351 20.8283 49.6823 17.8299Z" stroke="#C6D0F5" stroke-width="4" stroke-miterlimit="10" stroke-linecap="round" stroke-linejoin="round"/>
<path d="M41 26.1061L24.7877 42.3184C22.5456 44.5605 18.9237 44.5605 16.6816 42.3184C14.4395 40.0763 14.4395 36.4544 16.6816 34.2123L32.8939 18" stroke="#C6D0F5" stroke-width="4" stroke-miterlimit="10" stroke-linecap="round" stroke-linejoin="round"/>
<path d="M19 60C19 63.3137 16.3137 66 13 66C9.68629 66 7 63.3137 7 60C7 59.2043 7.15488 58.4448 7.43614 57.75C8.32622 55.5511 13 51 13 51C13 51 17.6737 55.5511 18.5639 57.75C18.8451 58.4448 19 59.2043 19 60Z" stroke="#C6D0F5" stroke-width="4" stroke-linecap="round" stroke-linejoin="round"/>
</svg>
