<svg width="68" height="68" viewBox="0 0 68 68" fill="none" xmlns="http://www.w3.org/2000/svg">
<path d="M66 32.5L66 54L66 58C66 62.42 62.42 66 58 66L10 66C5.58 66 2 62.42 2 58L2 10C1.99999 5.58001 5.57999 2.00001 9.99999 2L40.873 2" stroke="#C6D0F5" stroke-width="4" stroke-linecap="round" stroke-linejoin="round"/>
<path d="M50.3409 12.5776L49.12 3.27951C49.12 2.18912 50.4911 1.60099 51.3791 2.30809L64.3987 14.8442C66.5338 16.9061 66.5338 20.2698 64.3987 22.3316L51.3791 34.8677C50.4911 35.5748 49.12 34.9867 49.12 33.8963L50.3409 23.1378H39.5479C30.8051 23.1378 23.2963 29.429 21.6705 38.1257C21.1808 39.5002 19 39.1698 19 37.7226V30.982C19 20.8116 27.1486 12.5643 37.1973 12.5643H50.3409V12.5776Z" stroke="#C6D0F5" stroke-width="4" stroke-linecap="round" stroke-linejoin="round"/>
</svg>
