<svg width="68" height="68" viewBox="0 0 68 68" fill="none" xmlns="http://www.w3.org/2000/svg">
<path d="M55.9022 45.8755L56.6045 46.5778C59.3956 49.3511 59.4044 53.8578 56.6222 56.64C53.8488 59.4133 49.3511 59.4133 46.5778 56.64L45.84 55.9022C44.3466 56.72 42.7467 57.36 41.1111 57.8578V58.8978C41.1111 62.8178 37.9289 66 34.0089 66H33.9911C30.0711 66 26.8889 62.8178 26.8889 58.8978V57.8578C25.2533 57.36 23.6534 56.72 22.16 55.9022L21.4222 56.64C18.6489 59.4133 14.1512 59.4133 11.3778 56.64C8.5956 53.8578 8.6044 49.3511 11.3955 46.5778L12.0978 45.8755V45.84C11.28 44.3467 10.64 42.7467 10.1423 41.1111H9.10221C5.18221 41.1111 2 37.9289 2 34.0089V33.9911C2 30.0711 5.18221 26.8889 9.10221 26.8889H10.1423C10.64 25.2533 11.28 23.6533 12.0978 22.16L11.36 21.4222C8.58669 18.6489 8.58669 14.1511 11.36 11.3778C14.1422 8.59554 18.6489 8.60445 21.4222 11.3956L22.1245 12.0978H22.16C23.6534 11.28 25.2533 10.64 26.8889 10.1422V9.10221C26.8889 5.18221 30.0711 2 33.9911 2H34.0089C37.9289 2 41.1111 5.18221 41.1111 9.10221V10.1422C42.7467 10.64 44.3466 11.28 45.84 12.0978H45.8755L46.5778 11.3956C49.3511 8.60445 53.8578 8.59554 56.64 11.3778C59.4133 14.1511 59.4133 18.6489 56.64 21.4222L55.9022 22.16C56.72 23.6533 57.36 25.2533 57.8577 26.8889H58.8978C62.8178 26.8889 66 30.0711 66 33.9911V34.0089C66 37.9289 62.8178 41.1111 58.8978 41.1111H57.8577C57.36 42.7467 56.72 44.3467 55.9022 45.84" stroke="#C6D0F5" stroke-width="4" stroke-linecap="round" stroke-linejoin="round"/>
<path d="M34.0026 44.6663C39.8936 44.6663 44.6693 39.8907 44.6693 33.9997C44.6693 28.1086 39.8936 23.333 34.0026 23.333C28.1116 23.333 23.3359 28.1086 23.3359 33.9997C23.3359 39.8907 28.1116 44.6663 34.0026 44.6663Z" stroke="#C6D0F5" stroke-width="4" stroke-linecap="round" stroke-linejoin="round"/>
</svg>
