<svg width="68" height="68" viewBox="0 0 68 68" fill="none" xmlns="http://www.w3.org/2000/svg">
<path d="M31.1562 16.2949L25.8451 21.6061C24.6713 22.7799 22.7699 22.7799 21.5961 21.6061L16.2849 16.2949" stroke="#C6D0F5" stroke-width="4" stroke-linecap="round" stroke-linejoin="round"/>
<path d="M23.7256 21.2207V6.99999" stroke="#C6D0F5" stroke-width="4" stroke-linecap="round" stroke-linejoin="round"/>
<path d="M52.4375 52.7998L47.1263 47.4886C45.9525 46.3148 45.9525 44.4134 47.1263 43.2397L52.4375 37.9285" stroke="#C6D0F5" stroke-width="4" stroke-linecap="round" stroke-linejoin="round"/>
<path d="M47.5068 45.3662H61.7275" stroke="#C6D0F5" stroke-width="4" stroke-linecap="round" stroke-linejoin="round"/>
<path d="M2 10L2 58C2 62.4183 5.58172 66 10 66H58C62.4183 66 66 62.4183 66 58V10C66 5.58172 62.4183 2 58 2H10C5.58172 2 2 5.58172 2 10Z" stroke="#C6D0F5" stroke-width="4" stroke-linecap="round" stroke-linejoin="round"/>
<path d="M31.6667 33H14.3333C11.9401 33 10 34.9401 10 37.3333V54.6667C10 57.0599 11.9401 59 14.3333 59H31.6667C34.0599 59 36 57.0599 36 54.6667V37.3333C36 34.9401 34.0599 33 31.6667 33Z" stroke="#C6D0F5" stroke-width="4" stroke-linecap="round" stroke-linejoin="round"/>
</svg>
