<svg width="68" height="68" viewBox="0 0 68 68" fill="none" xmlns="http://www.w3.org/2000/svg">
<path d="M42 12H53.4286C55.9543 12 58 14.0457 58 16.5714V28" stroke="#4C4F69" stroke-width="4" stroke-linecap="round" stroke-linejoin="round"/>
<path d="M55.3 14.7002L40 30.0002" stroke="#4C4F69" stroke-width="4" stroke-linecap="round" stroke-linejoin="round"/>
<path d="M2 10L2 58C2 62.4183 5.58172 66 10 66H58C62.4183 66 66 62.4183 66 58V10C66 5.58172 62.4183 2 58 2H10C5.58172 2 2 5.58172 2 10Z" stroke="#4C4F69" stroke-width="4" stroke-linecap="round" stroke-linejoin="round"/>
<path d="M31.6667 33H14.3333C11.9401 33 10 34.9401 10 37.3333V54.6667C10 57.0599 11.9401 59 14.3333 59H31.6667C34.0599 59 36 57.0599 36 54.6667V37.3333C36 34.9401 34.0599 33 31.6667 33Z" stroke="#4C4F69" stroke-width="4" stroke-linecap="round" stroke-linejoin="round"/>
</svg>
