<svg width="68" height="68" viewBox="0 0 68 68" fill="none" xmlns="http://www.w3.org/2000/svg">
<path d="M58 66H10C5.58 66 2 62.42 2 58V10C2 5.58 5.58 2 10 2H46.69C48.81 2 50.85 2.84003 52.35 4.34003L63.66 15.65C65.16 17.15 66 19.19 66 21.31V58C66 62.42 62.42 66 58 66Z" stroke="#4C4F69" stroke-width="4" stroke-linecap="round" stroke-linejoin="round"/>
<path d="M50 2.71997V22C50 26.42 46.42 30 42 30H26C21.58 30 18 26.42 18 22V2" stroke="#4C4F69" stroke-width="4" stroke-linecap="round" stroke-linejoin="round"/>
<path d="M18 66V58C18 53.58 21.58 50 26 50H42C46.42 50 50 53.58 50 58V66" stroke="#4C4F69" stroke-width="4" stroke-linecap="round" stroke-linejoin="round"/>
</svg>
