<svg width="67" height="66" viewBox="0 0 67 66" fill="none" xmlns="http://www.w3.org/2000/svg">
<path d="M64.9998 43.4999L64.9998 57.5694C64.9998 58.2333 64.9998 58.5653 64.9738 58.8194C64.6758 61.728 61.9626 63.7592 59.0879 63.226C58.8367 63.1794 58.5173 63.0856 57.8786 62.8981L57.8785 62.8981C48.2943 60.0848 31.0056 55.0277 18.4999 51.4711C14.4011 50.3054 10.9209 49.4628 8.00036 48.5C5.03214 47.5215 4 47.5 3.0006 46C0.674097 42.5081 2.68321 37.9499 7.11046 37.9499L18.4999 37.9499L59.4498 37.9499C59.9606 37.9499 60.216 37.9499 60.4313 37.9686C62.852 38.1782 64.7715 40.0978 64.9812 42.5185C64.9998 42.7338 64.9998 42.9892 64.9998 43.4999Z" fill="#313244" stroke="#CDD6F4" stroke-width="4" stroke-linecap="round" stroke-linejoin="round" stroke-dasharray="6 6"/>
<path d="M64.9998 22.4923L64.9998 8.42281C64.9998 7.75886 64.9998 7.42688 64.9738 7.17275C64.6758 4.26421 61.9626 2.23294 59.0879 2.76622C58.8367 2.81282 58.5173 2.90656 57.8786 3.09406L57.8785 3.09407C48.2943 5.90743 31.0056 10.9645 18.4999 14.5211C14.4011 15.6868 10.9209 16.5294 8.00036 17.4922C5.03213 18.4707 4 18.4922 3.0006 19.9922C0.674095 23.484 2.68321 28.0423 7.11046 28.0423L18.4999 28.0423L59.4498 28.0423C59.9606 28.0423 60.216 28.0423 60.4313 28.0236C62.852 27.814 64.7715 25.8944 64.9812 23.4737C64.9998 23.2584 64.9998 23.003 64.9998 22.4923Z" stroke="#CDD6F4" stroke-width="4" stroke-linecap="round" stroke-linejoin="round"/>
</svg>
