<svg width="68" height="68" viewBox="0 0 68 68" fill="none" xmlns="http://www.w3.org/2000/svg">
<path d="M2 10L2 58C2 62.4183 5.58172 66 10 66H58C62.4183 66 66 62.4183 66 58V10C66 5.58172 62.4183 2 58 2H10C5.58172 2 2 5.58172 2 10Z" stroke="#CAD3F5" stroke-width="4" stroke-linecap="round" stroke-linejoin="round"/>
<path d="M12 28.1213V17.3738C12 14.4048 14.4052 12 17.3746 12H28.1239" stroke="#CAD3F5" stroke-width="4" stroke-linecap="round" stroke-linejoin="round"/>
<path d="M54.9989 28.1213V17.3738C54.9989 14.4048 52.5938 12 49.6243 12H38.875" stroke="#CAD3F5" stroke-width="3" stroke-linecap="round" stroke-linejoin="round"/>
<path d="M12 38.8691V49.6167C12 52.5857 14.4052 54.9905 17.3746 54.9905H28.1239" stroke="#CAD3F5" stroke-width="3" stroke-linecap="round" stroke-linejoin="round"/>
<path d="M54.9989 38.8691V49.6167C54.9989 52.5857 52.5938 54.9905 49.6243 54.9905H38.875" stroke="#CAD3F5" stroke-width="4" stroke-linecap="round" stroke-linejoin="round"/>
<path d="M41.5625 30.8125C44.531 30.8125 46.9375 28.406 46.9375 25.4375C46.9375 22.469 44.531 20.0625 41.5625 20.0625C38.594 20.0625 36.1875 22.469 36.1875 25.4375C36.1875 28.406 38.594 30.8125 41.5625 30.8125Z" stroke="#CAD3F5" stroke-width="3" stroke-linecap="round" stroke-linejoin="round"/>
<path d="M12 39.541L15.1511 36.5243C19.3503 32.4997 26.1564 32.4997 30.3556 36.5243L49.6317 55.0075" stroke="#CAD3F5" stroke-width="3" stroke-linecap="round" stroke-linejoin="round"/>
<path d="M39.1484 43.0179C43.3477 38.994 50.1538 38.994 54.353 43.0179L54.9248 43.5662" stroke="#CAD3F5" stroke-width="3" stroke-linecap="round" stroke-linejoin="round"/>
</svg>
