<svg width="68" height="67" viewBox="0 0 68 67" fill="none" xmlns="http://www.w3.org/2000/svg">
<path d="M15.6667 51H6.33333C5.04467 51 4 52.0447 4 53.3333V62.6667C4 63.9553 5.04467 65 6.33333 65H15.6667C16.9553 65 18 63.9553 18 62.6667V53.3333C18 52.0447 16.9553 51 15.6667 51Z" stroke="#CAD3F5" stroke-width="4" stroke-linecap="round" stroke-linejoin="round"/>
<path d="M38.6667 51H29.3333C28.0447 51 27 52.0447 27 53.3333V62.6667C27 63.9553 28.0447 65 29.3333 65H38.6667C39.9553 65 41 63.9553 41 62.6667V53.3333C41 52.0447 39.9553 51 38.6667 51Z" stroke="#CAD3F5" stroke-width="4" stroke-linecap="round" stroke-linejoin="round"/>
<path d="M60.6667 51H51.3333C50.0447 51 49 52.0447 49 53.3333V62.6667C49 63.9553 50.0447 65 51.3333 65H60.6667C61.9553 65 63 63.9553 63 62.6667V53.3333C63 52.0447 61.9553 51 60.6667 51Z" stroke="#CAD3F5" stroke-width="4" stroke-linecap="round" stroke-linejoin="round"/>
<rect x="2" y="2" width="64" height="40" rx="3" stroke="#CAD3F5" stroke-width="4"/>
<path d="M19 22.6521L20.9053 20.828C23.4444 18.3946 27.5597 18.3946 30.0988 20.828L41.7541 32.0039" stroke="#CAD3F5" stroke-width="3" stroke-linecap="round" stroke-linejoin="round"/>
<path d="M35.4141 24.7545C37.9531 22.3214 42.0684 22.3214 44.6075 24.7545L44.9533 25.086" stroke="#CAD3F5" stroke-width="3" stroke-linecap="round" stroke-linejoin="round"/>
<path d="M51.5 18C52.8807 18 54 16.8807 54 15.5C54 14.1193 52.8807 13 51.5 13C50.1193 13 49 14.1193 49 15.5C49 16.8807 50.1193 18 51.5 18Z" stroke="#CAD3F5" stroke-width="3" stroke-linecap="round" stroke-linejoin="round"/>
</svg>
