<svg width="64" height="64" viewBox="0 0 64 64" fill="none" xmlns="http://www.w3.org/2000/svg">
<g clip-path="url(#clip0_115_284)">
<rect width="64" height="64" rx="18" fill="#24273A"/>
<path fill-rule="evenodd" clip-rule="evenodd" d="M41.0909 20.6567C41.9834 20.6506 42.8906 20.6142 43.7816 20.6579C44.5333 20.6948 45.2096 20.9059 45.7196 21.487C45.7686 21.5434 45.8146 21.6022 45.8578 21.6631C45.9009 21.724 45.9411 21.7869 45.9781 21.8518C46.0151 21.9166 46.0487 21.9831 46.0792 22.0513C46.1095 22.1195 46.1365 22.1891 46.16 22.26C46.1835 22.3309 46.2036 22.4027 46.2201 22.4756C46.2364 22.5484 46.249 22.6219 46.2581 22.696C46.2673 22.7701 46.2729 22.8445 46.2747 22.9192C46.2764 22.9938 46.2746 23.0684 46.2691 23.1428C46.2645 23.2185 46.2559 23.294 46.2437 23.3689C46.2316 23.4437 46.2159 23.5178 46.1964 23.5911C46.1769 23.6644 46.1537 23.7366 46.127 23.8076C46.1002 23.8786 46.0699 23.9479 46.0362 24.0159C46.0026 24.0838 45.9657 24.1501 45.9254 24.2143C45.8851 24.2786 45.8415 24.3407 45.795 24.4006C45.7485 24.4606 45.6992 24.5182 45.6471 24.5732C45.5949 24.6282 45.54 24.6804 45.4825 24.73C44.6885 25.41 43.727 25.3655 42.752 25.3008C42.8264 25.4333 42.8974 25.5675 42.9654 25.7034C43.0334 25.8392 43.0983 25.9767 43.1598 26.1157C43.2211 26.2547 43.2793 26.395 43.3343 26.5366C43.3891 26.6783 43.4406 26.8211 43.4886 26.9651C43.5368 27.1092 43.5812 27.2545 43.6224 27.4006C43.6636 27.5469 43.7014 27.6941 43.7357 27.842C43.7698 27.99 43.8006 28.1388 43.828 28.2883C43.8551 28.4376 43.8788 28.5876 43.899 28.7383C43.9192 28.8888 43.9357 29.0399 43.9486 29.1914C43.9616 29.3427 43.9708 29.4944 43.9767 29.6462C43.9825 29.798 43.9848 29.9498 43.9835 30.1016C43.9822 30.2535 43.9773 30.4055 43.9686 30.5571C43.9601 30.7088 43.9479 30.8602 43.9322 31.0112C43.9166 31.1623 43.8974 31.313 43.8746 31.4631C43.8518 31.6133 43.8253 31.7629 43.7953 31.9119C43.7654 32.0609 43.7319 32.2091 43.6949 32.3564C43.6573 32.5037 43.6161 32.6501 43.5711 32.7954C43.5263 32.9407 43.4778 33.0847 43.4256 33.2275C43.3736 33.3703 43.3181 33.5119 43.2591 33.6521C43.2 33.7922 43.1374 33.9309 43.0714 34.0679C43.0056 34.2048 42.9363 34.3402 42.8636 34.4739C42.791 34.6075 42.715 34.7393 42.6358 34.8691C42.5567 34.999 42.4743 35.1268 42.3888 35.2524C42.3033 35.3782 42.2148 35.5018 42.1234 35.623C42.0317 35.7445 41.9369 35.8638 41.8394 35.9805C41.742 36.0971 41.6416 36.2114 41.5384 36.3232C41.4353 36.4349 41.3294 36.5439 41.2208 36.6504C41.1123 36.7569 41.0012 36.8607 40.8875 36.9617C40.7737 37.0627 40.6574 37.1607 40.5389 37.2558C40.4204 37.3512 40.2997 37.4436 40.1766 37.5327C40.0534 37.622 39.9282 37.7083 39.8009 37.7912C39.6734 37.8742 39.5438 37.9538 39.4124 38.0305C37.1185 39.37 34.6021 39.6361 32.0514 38.9614C30.5654 38.5104 29.2453 37.7582 28.1349 36.6677C28.0265 36.5622 27.9206 36.4541 27.8175 36.3435C27.7145 36.2328 27.6142 36.1196 27.5167 36.0041C27.4192 35.8885 27.3247 35.7705 27.233 35.6504C27.1414 35.5302 27.0528 35.4078 26.9671 35.2832C26.8815 35.1585 26.7988 35.0317 26.7193 34.9031C26.6398 34.7746 26.5635 34.6442 26.4906 34.5117C26.4176 34.3794 26.3478 34.2452 26.2813 34.1094C26.215 33.9735 26.152 33.836 26.0924 33.697C26.0327 33.558 25.9763 33.4178 25.9234 33.2761C25.8706 33.1345 25.8214 32.9916 25.7757 32.8474C25.7299 32.7034 25.6878 32.5582 25.6493 32.4119C25.6106 32.2657 25.5756 32.1187 25.5443 31.9709C25.5128 31.8229 25.485 31.6742 25.461 31.5249C25.4369 31.3757 25.4164 31.226 25.3997 31.0757C25.3831 30.9253 25.37 30.7746 25.3607 30.6238C25.3514 30.4728 25.3459 30.3218 25.3441 30.1706C25.3238 27.6504 26.2298 25.2627 28.0111 23.4643C28.1094 23.3645 28.2099 23.2667 28.3126 23.1714C28.4154 23.0761 28.5202 22.9832 28.627 22.8926C28.734 22.8019 28.8429 22.7136 28.9537 22.6279C29.0647 22.5422 29.1777 22.4591 29.2923 22.3784C29.4068 22.2978 29.523 22.2197 29.6412 22.1443C29.7594 22.0689 29.8793 21.9963 30.0008 21.9263C30.1223 21.8563 30.2452 21.789 30.3697 21.7246C30.494 21.6602 30.6199 21.5985 30.7472 21.5398C30.8743 21.481 31.0028 21.425 31.1327 21.3721C31.2625 21.3191 31.3935 21.269 31.5255 21.2219C31.6574 21.1748 31.7904 21.1309 31.9244 21.0898C32.0584 21.0488 32.1933 21.0106 32.3289 20.9756C32.4648 20.9406 32.6014 20.9087 32.7386 20.8799C32.8757 20.851 33.0134 20.8254 33.1517 20.8027C33.29 20.7801 33.4288 20.7605 33.568 20.7441C33.7071 20.7278 33.8466 20.7144 33.9864 20.7043C34.8904 20.6321 35.8206 20.6779 36.7284 20.6763L41.0909 20.6567ZM34.7174 25.3423C34.6414 25.3416 34.5655 25.3427 34.4896 25.3457C34.4131 25.3487 34.3366 25.3538 34.2603 25.3606C34.184 25.3674 34.1079 25.376 34.0321 25.3865C33.9561 25.397 33.8804 25.4095 33.8053 25.4238C33.7299 25.4382 33.6549 25.4542 33.5804 25.4722C33.5061 25.49 33.4322 25.5098 33.3587 25.5315C33.2852 25.5532 33.2122 25.5766 33.1397 25.6018C33.0674 25.627 32.9956 25.6539 32.9246 25.6826C32.8537 25.7114 32.7834 25.7418 32.714 25.7739C32.6445 25.8061 32.5757 25.8401 32.5079 25.8757C32.4401 25.9112 32.3732 25.9485 32.3072 25.9873C32.2412 26.0263 32.1761 26.0669 32.1121 26.1089C32.048 26.151 31.985 26.1946 31.9232 26.2397C31.8614 26.2849 31.8008 26.3317 31.7413 26.3799C31.6816 26.428 31.6232 26.4776 31.566 26.5286C31.509 26.5797 31.4532 26.6321 31.3985 26.6858C31.344 26.7396 31.2909 26.7948 31.2391 26.8513C31.1873 26.9076 31.1367 26.9652 31.0877 27.0242C31.0387 27.083 30.9912 27.1432 30.9452 27.2046C30.8992 27.2657 30.8548 27.3281 30.8119 27.3916C30.769 27.4549 30.7276 27.5192 30.6878 27.5847C30.648 27.6502 30.6098 27.7166 30.5733 27.7839C30.5368 27.8512 30.502 27.9196 30.4688 27.9888C30.4358 28.0577 30.4044 28.1276 30.3746 28.1982C30.3449 28.2687 30.317 28.3401 30.2909 28.4121C30.2647 28.4841 30.24 28.5568 30.2174 28.6301C30.1949 28.7032 30.1741 28.7769 30.1551 28.8511C30.1361 28.9252 30.1192 28.9998 30.1038 29.0749C30.0885 29.1499 30.0751 29.2254 30.0636 29.3013C30.0519 29.3769 30.0421 29.4529 30.0343 29.529C30.0264 29.6052 30.0204 29.6816 30.0162 29.758C30.0122 29.8345 30.0102 29.9111 30.0099 29.9878C30.0095 30.0644 30.011 30.141 30.0145 30.2175C30.018 30.294 30.0234 30.3704 30.0306 30.4468C30.0379 30.5229 30.0469 30.599 30.0577 30.6748C30.0687 30.7506 30.0816 30.8262 30.0963 30.9014C30.1111 30.9765 30.1278 31.0513 30.1461 31.1257C30.1644 31.2 30.1844 31.2739 30.2064 31.3472C30.2284 31.4205 30.2523 31.4934 30.2779 31.5657C30.3036 31.6378 30.331 31.7094 30.36 31.7803C30.3891 31.8511 30.4201 31.9212 30.4527 31.9905C30.4852 32.0598 30.5195 32.1284 30.5555 32.196C30.5915 32.2637 30.6291 32.3304 30.6683 32.3962C30.7076 32.4619 30.7485 32.5267 30.7909 32.5906C30.8333 32.6544 30.8772 32.7172 30.9227 32.7788C30.9682 32.8403 31.0153 32.9006 31.0638 32.96C31.1123 33.0193 31.1621 33.0774 31.2135 33.1343C31.265 33.1911 31.3177 33.2466 31.3717 33.3008C31.4258 33.3551 31.4813 33.408 31.5379 33.4595C31.5946 33.511 31.6526 33.5612 31.7118 33.6099C31.7709 33.6585 31.8312 33.7056 31.8927 33.7512C31.9542 33.7969 32.0168 33.841 32.0804 33.8835C32.1441 33.9262 32.2089 33.9673 32.2747 34.0068C32.3404 34.0462 32.407 34.0839 32.4745 34.1201C32.542 34.1563 32.6104 34.1907 32.6798 34.2234C32.7489 34.2562 32.8189 34.2873 32.8897 34.3166C32.9606 34.3458 33.0322 34.3731 33.1043 34.3989C33.1763 34.4247 33.249 34.4488 33.3224 34.4709C33.3957 34.4931 33.4695 34.5136 33.5438 34.5322C33.6181 34.5507 33.6928 34.5674 33.7679 34.5823C33.8431 34.5973 33.9186 34.6104 33.9945 34.6216C34.0701 34.6327 34.1462 34.6418 34.2225 34.6492C34.2987 34.6567 34.3751 34.6623 34.4517 34.666C34.5282 34.6697 34.6047 34.6715 34.6812 34.6714C34.7579 34.6712 34.8345 34.6691 34.911 34.6653C34.987 34.6614 35.0628 34.6556 35.1385 34.6479C35.2142 34.6404 35.2898 34.6312 35.3651 34.6199C35.4402 34.6087 35.5151 34.5955 35.5897 34.5806C35.6642 34.5657 35.7385 34.5489 35.8123 34.5303C35.886 34.5118 35.9593 34.4914 36.0321 34.4692C36.1048 34.4471 36.1769 34.4231 36.2484 34.3975C36.32 34.3718 36.3912 34.3443 36.4615 34.3152C36.5317 34.2862 36.6012 34.2555 36.67 34.2229C36.7386 34.1904 36.8065 34.1562 36.8736 34.1204C36.9406 34.0845 37.007 34.047 37.0724 34.0078C37.1375 33.9686 37.2017 33.9279 37.265 33.8857C37.3283 33.8434 37.3905 33.7998 37.4515 33.7546C37.5127 33.7093 37.5726 33.6624 37.6314 33.6142C37.6903 33.5659 37.748 33.5163 37.8043 33.4653C37.8608 33.4143 37.916 33.3619 37.9698 33.3081C38.0236 33.2544 38.0761 33.1994 38.1273 33.1431C38.1785 33.0867 38.2281 33.0291 38.2765 32.9704C38.3248 32.9116 38.3718 32.8518 38.4171 32.7908C38.4626 32.7298 38.5064 32.6676 38.5487 32.6045C38.591 32.5413 38.6318 32.4772 38.671 32.4121C38.7103 32.347 38.748 32.2808 38.784 32.2136C38.82 32.1466 38.8544 32.0787 38.8871 32.01C38.9197 31.9413 38.9507 31.8719 38.9798 31.8017C39.0091 31.7314 39.0368 31.6606 39.0626 31.5891C39.0884 31.5176 39.1124 31.4454 39.1346 31.3725C39.1569 31.2999 39.1772 31.2266 39.1959 31.1528C39.2146 31.0792 39.2315 31.0048 39.2467 30.9302C39.2617 30.8557 39.2749 30.7809 39.2862 30.7058C39.2977 30.6306 39.3074 30.5551 39.315 30.4792C39.3227 30.4036 39.3286 30.3278 39.3326 30.2519C39.3366 30.176 39.3386 30.0998 39.339 30.0237C39.3393 29.9477 39.3378 29.8718 39.3343 29.7959C39.3308 29.7199 39.3254 29.644 39.3182 29.5683C39.3112 29.4925 39.3023 29.4169 39.2913 29.3418C39.2805 29.2665 39.2678 29.1914 39.2533 29.1167C39.2388 29.042 39.2224 28.9678 39.2042 28.894C39.186 28.82 39.166 28.7466 39.1444 28.6738C39.1227 28.601 39.0994 28.5286 39.0741 28.4568C39.0487 28.3851 39.0217 28.3141 38.993 28.2436C38.9642 28.1731 38.9336 28.1032 38.9015 28.0344C38.8693 27.9654 38.8354 27.8974 38.7999 27.8303C38.7644 27.763 38.7275 27.6966 38.6888 27.6311C38.65 27.5656 38.6095 27.501 38.5677 27.4375C38.5259 27.374 38.4826 27.3115 38.4376 27.2502C38.3926 27.1889 38.346 27.1288 38.2982 27.0698C38.2504 27.0106 38.2011 26.9527 38.1502 26.896C38.0996 26.8393 38.0475 26.7839 37.994 26.7297C37.9407 26.6756 37.8858 26.6228 37.8297 26.5713C37.7737 26.52 37.7165 26.47 37.658 26.4214C37.5997 26.3727 37.5401 26.3253 37.4793 26.2795C37.4185 26.2339 37.3566 26.1896 37.2938 26.147C37.2308 26.1041 37.1666 26.0629 37.1017 26.0234C37.0367 25.9838 36.9708 25.9457 36.9041 25.9094C36.8373 25.8731 36.7697 25.8384 36.7013 25.8054C36.6328 25.7722 36.5634 25.7408 36.4933 25.7112C36.4233 25.6815 36.3526 25.6536 36.2811 25.6274C36.2098 25.6013 36.1377 25.5769 36.065 25.5542C35.9925 25.5315 35.9194 25.5106 35.8458 25.4914C35.7721 25.4724 35.6979 25.4552 35.6234 25.4397C35.5489 25.4242 35.4742 25.4105 35.3993 25.3987C35.3241 25.3868 35.2486 25.3771 35.1729 25.3689C35.0973 25.3607 35.0214 25.3544 34.9454 25.3501C34.8696 25.3456 34.7935 25.3429 34.7174 25.3423Z" fill="#CAD3F5"/>
<path d="M34.1005 40.7103C35.0348 40.6293 35.9403 40.6733 36.8588 40.872C37.0059 40.9025 37.1522 40.9366 37.2975 40.9743C37.4428 41.0119 37.5872 41.0533 37.7305 41.0983C37.8739 41.1431 38.016 41.1915 38.157 41.2435C38.2978 41.2955 38.4373 41.351 38.5755 41.41C38.7137 41.4689 38.8503 41.5312 38.9855 41.597C39.1205 41.6627 39.2539 41.7317 39.3855 41.804C39.517 41.8765 39.6467 41.9522 39.7745 42.031C39.9025 42.1099 40.0283 42.1919 40.152 42.277C40.2758 42.362 40.3974 42.4501 40.5168 42.5413C40.6361 42.6324 40.7531 42.7265 40.8678 42.8235C40.9826 42.9205 41.0949 43.0204 41.2045 43.123C41.3142 43.2255 41.4213 43.3308 41.5258 43.4388C41.6303 43.5466 41.732 43.657 41.831 43.77C41.93 43.883 42.0261 43.9984 42.1193 44.116C42.2126 44.2339 42.3029 44.3539 42.39 44.4763C42.4774 44.5984 42.5615 44.7228 42.6425 44.8493C43.3158 45.8985 44.1435 47.5718 43.8453 48.858C43.705 49.4633 43.3403 50.0323 42.8048 50.36C42.255 50.6965 41.5815 50.7373 40.967 50.5778C39.3753 50.1648 39.4588 48.61 38.766 47.4438C38.096 46.3158 37.0088 45.7125 35.7683 45.3963C35.2053 45.3305 34.6488 45.3105 34.088 45.409C34 45.4242 33.9126 45.442 33.8258 45.4625C33.7388 45.483 33.6525 45.5063 33.567 45.5323C33.4817 45.5581 33.3972 45.5866 33.3135 45.6178C33.2299 45.6489 33.1472 45.6827 33.0655 45.719C32.984 45.7554 32.9037 45.7942 32.8245 45.8355C32.7453 45.8769 32.6675 45.9206 32.591 45.9668C32.5147 46.013 32.4398 46.0615 32.3665 46.1125C32.293 46.1634 32.2213 46.2165 32.1513 46.2718C32.0811 46.3271 32.0128 46.3845 31.9463 46.444C31.8798 46.5035 31.8152 46.5651 31.7525 46.6288C31.6899 46.6924 31.6292 46.7579 31.5705 46.8253C31.512 46.8926 31.4556 46.9617 31.4013 47.0325C31.3469 47.1035 31.2949 47.1761 31.245 47.2503C31.1954 47.3243 31.1479 47.3999 31.1028 47.477C31.0578 47.5542 31.0152 47.6326 30.975 47.7123C30.9349 47.7919 30.8972 47.8729 30.862 47.955C30.6128 48.5518 30.4795 49.1953 30.0968 49.729C29.7573 50.2025 29.2538 50.569 28.6705 50.6603C28.0665 50.755 27.3558 50.5858 26.8683 50.215C26.4255 49.878 25.9983 49.224 25.9363 48.6643C25.7813 47.2678 26.9108 45.1743 27.7558 44.1038C29.3193 42.1235 31.6243 40.9988 34.1005 40.7103Z" fill="#CAD3F5"/>
<path d="M19.5927 20.6396C20.0852 20.6556 20.5948 20.8135 21.0013 21.0908C21.4085 21.3685 21.7746 21.8232 21.8682 22.3165C22.066 23.3585 21.9975 24.4684 21.9983 25.5258L21.9999 29.8801L21.9981 34.4678C21.9974 35.4071 22.0399 36.3728 21.9395 37.3066C21.8975 37.6981 21.8168 38.0083 21.584 38.3358C21.1451 38.9531 20.4855 39.2396 19.7616 39.3583C19.287 39.3521 18.8163 39.2271 18.4134 38.9736C17.9766 38.6986 17.5115 38.1743 17.4078 37.6546C17.2529 36.8783 17.3329 35.9661 17.3349 35.1753L17.3396 31.2838L17.3468 25.8446C17.348 24.8804 17.2974 23.8868 17.371 22.9272C17.4061 22.4703 17.453 22.0997 17.7164 21.7083C18.1624 21.0453 18.8412 20.782 19.5927 20.6396Z" fill="#CAD3F5"/>
<path d="M19.5265 14.6732C19.5646 14.6709 19.6028 14.6695 19.641 14.6691C19.6792 14.6687 19.7174 14.6692 19.7556 14.6706C19.7938 14.6721 19.8319 14.6745 19.87 14.6778C19.908 14.6811 19.946 14.6854 19.9839 14.6906C20.0217 14.6958 20.0594 14.7019 20.097 14.709C20.1345 14.716 20.1719 14.724 20.2091 14.7329C20.2462 14.7418 20.2832 14.7516 20.3198 14.7623C20.3565 14.773 20.3929 14.7846 20.429 14.7971C20.4651 14.8096 20.5009 14.8229 20.5364 14.8372C20.5718 14.8514 20.6069 14.8666 20.6416 14.8825C20.6763 14.8985 20.7106 14.9153 20.7445 14.933C20.7784 14.9507 20.8118 14.9692 20.8448 14.9885C20.8778 15.0078 20.9103 15.0279 20.9423 15.0488C20.9742 15.0697 21.0057 15.0914 21.0366 15.1138C21.0675 15.1363 21.0979 15.1595 21.1277 15.1834C21.1574 15.2074 21.1866 15.2321 21.2152 15.2574C21.2437 15.2828 21.2716 15.3089 21.2989 15.3356C21.3262 15.3624 21.3528 15.3898 21.3788 15.4179C21.4047 15.4459 21.4299 15.4746 21.4545 15.5039C21.479 15.5332 21.5028 15.5631 21.5258 15.5936C21.5489 15.6241 21.5712 15.6551 21.5927 15.6867C21.6142 15.7182 21.635 15.7503 21.6549 15.7829C21.6749 15.8155 21.694 15.8486 21.7123 15.8821C21.7306 15.9156 21.7481 15.9496 21.7648 15.984C21.7815 16.0184 21.7972 16.0532 21.8122 16.0883C21.8271 16.1235 21.8412 16.159 21.8544 16.1949C21.8676 16.2307 21.8799 16.2669 21.8913 16.3034C21.9027 16.3398 21.9133 16.3766 21.9229 16.4135C21.9325 16.4505 21.9412 16.4877 21.949 16.5251C21.9567 16.5626 21.9636 16.6001 21.9695 16.6379C21.9755 16.6756 21.9805 16.7135 21.9845 16.7515C21.9886 16.7895 21.9918 16.8276 21.994 16.8657C21.9962 16.9039 21.9974 16.9421 21.9977 16.9803C21.9981 17.0185 21.9974 17.0567 21.9959 17.0948C21.9943 17.133 21.9918 17.1712 21.9884 17.2092C21.985 17.2473 21.9806 17.2852 21.9753 17.3231C21.97 17.3609 21.9638 17.3986 21.9566 17.4361C21.9495 17.4737 21.9414 17.511 21.9324 17.5481C21.9234 17.5853 21.9136 17.6222 21.9028 17.6588C21.8919 17.6955 21.8802 17.7319 21.8677 17.7679C21.8551 17.804 21.8416 17.8398 21.8272 17.8752C21.8129 17.9106 21.7977 17.9456 21.7816 17.9803C21.7655 18.015 21.7486 18.0492 21.7309 18.0831C21.7131 18.1169 21.6945 18.1503 21.6751 18.1832C21.6557 18.2161 21.6355 18.2486 21.6145 18.2805C21.5935 18.3124 21.5718 18.3438 21.5493 18.3747C21.5267 18.4055 21.5034 18.4358 21.4794 18.4655C21.4554 18.4952 21.4306 18.5243 21.4052 18.5528C21.3797 18.5813 21.3536 18.6092 21.3268 18.6364C21.2999 18.6636 21.2724 18.6901 21.2443 18.716C21.2162 18.7419 21.1874 18.767 21.1581 18.7915C21.1287 18.8159 21.0987 18.8396 21.0682 18.8626C21.0376 18.8856 21.0066 18.9078 20.9749 18.9292C20.9433 18.9507 20.9112 18.9713 20.8785 18.9912C20.8459 19.011 20.8128 19.0301 20.7792 19.0483C20.7456 19.0666 20.7116 19.084 20.6772 19.1005C20.6427 19.1171 20.6079 19.1328 20.5727 19.1476C20.5375 19.1625 20.5019 19.1765 20.466 19.1896C20.4301 19.2027 20.394 19.2149 20.3575 19.2262C20.321 19.2375 20.2842 19.2479 20.2472 19.2574C20.2102 19.267 20.173 19.2756 20.1355 19.2832C20.0981 19.2909 20.0605 19.2977 20.0227 19.3035C19.985 19.3094 19.9471 19.3143 19.9091 19.3182C19.8711 19.3222 19.833 19.3252 19.7948 19.3273C19.7568 19.3294 19.7187 19.3306 19.6807 19.3308C19.6426 19.331 19.6045 19.3303 19.5665 19.3287C19.5284 19.327 19.4904 19.3245 19.4525 19.3209C19.4146 19.3174 19.3768 19.313 19.3391 19.3077C19.3014 19.3023 19.2638 19.296 19.2264 19.2888C19.189 19.2816 19.1518 19.2735 19.1148 19.2645C19.0778 19.2555 19.0411 19.2456 19.0046 19.2348C18.9681 19.2239 18.9318 19.2122 18.8959 19.1996C18.86 19.187 18.8243 19.1736 18.7891 19.1592C18.7538 19.1449 18.7189 19.1297 18.6844 19.1136C18.6498 19.0976 18.6157 19.0807 18.582 19.063C18.5483 19.0453 18.515 19.0267 18.4822 19.0073C18.4494 18.988 18.4171 18.9679 18.3853 18.9469C18.3535 18.926 18.3222 18.9043 18.2915 18.8818C18.2607 18.8593 18.2306 18.8361 18.201 18.8122C18.1713 18.7882 18.1423 18.7636 18.1139 18.7382C18.0855 18.7128 18.0578 18.6868 18.0307 18.66C18.0035 18.6333 17.9771 18.6059 17.9513 18.5779C17.9255 18.5499 17.9004 18.5212 17.8761 18.4919C17.8517 18.4627 17.828 18.4329 17.8051 18.4024C17.7822 18.372 17.7601 18.3411 17.7387 18.3096C17.7173 18.2781 17.6966 18.246 17.6768 18.2135C17.657 18.181 17.638 18.148 17.6198 18.1146C17.6015 18.0811 17.5842 18.0473 17.5676 18.013C17.5511 17.9787 17.5354 17.944 17.5205 17.9089C17.5057 17.8739 17.4917 17.8385 17.4786 17.8027C17.4654 17.767 17.4532 17.7309 17.4419 17.6945C17.4305 17.6582 17.4201 17.6216 17.4105 17.5847C17.401 17.5479 17.3923 17.5108 17.3846 17.4735C17.3768 17.4362 17.37 17.3988 17.3641 17.3611C17.3582 17.3235 17.3532 17.2858 17.3492 17.2479C17.3451 17.21 17.342 17.1721 17.3398 17.1341C17.3376 17.0961 17.3363 17.058 17.336 17.0199C17.3357 16.9818 17.3363 16.9438 17.3378 16.9057C17.3394 16.8677 17.3419 16.8297 17.3453 16.7917C17.3487 16.7538 17.353 16.716 17.3582 16.6783C17.3635 16.6406 17.3697 16.603 17.3768 16.5656C17.3839 16.5282 17.3919 16.4909 17.4008 16.4539C17.4097 16.4169 17.4195 16.3801 17.4303 16.3436C17.441 16.307 17.4526 16.2708 17.4651 16.2348C17.4776 16.1988 17.491 16.1632 17.5052 16.1278C17.5194 16.0925 17.5345 16.0576 17.5505 16.023C17.5665 15.9884 17.5833 15.9543 17.6009 15.9205C17.6185 15.8868 17.637 15.8535 17.6563 15.8206C17.6755 15.7878 17.6956 15.7554 17.7164 15.7235C17.7373 15.6917 17.7589 15.6603 17.7813 15.6295C17.8037 15.5987 17.8268 15.5685 17.8507 15.5388C17.8745 15.5091 17.8991 15.4801 17.9244 15.4516C17.9497 15.4231 17.9757 15.3953 18.0024 15.3681C18.029 15.3409 18.0563 15.3144 18.0843 15.2885C18.1123 15.2627 18.1408 15.2375 18.17 15.2131C18.1992 15.1886 18.229 15.1649 18.2594 15.1419C18.2897 15.1189 18.3206 15.0967 18.3521 15.0752C18.3835 15.0537 18.4154 15.033 18.4479 15.0131C18.4804 14.9932 18.5133 14.974 18.5467 14.9557C18.5801 14.9374 18.6139 14.92 18.6482 14.9033C18.6824 14.8867 18.7171 14.8709 18.7521 14.8559C18.7871 14.841 18.8225 14.8269 18.8582 14.8137C18.8939 14.8005 18.9299 14.7882 18.9663 14.7767C19.0026 14.7653 19.0392 14.7547 19.076 14.7451C19.1128 14.7354 19.1499 14.7267 19.1872 14.7188C19.2244 14.711 19.2619 14.7041 19.2995 14.6981C19.3371 14.6921 19.3748 14.687 19.4127 14.6828C19.4505 14.6787 19.4885 14.6755 19.5265 14.6732Z" fill="#CAD3F5"/>
</g>
<defs>
<clipPath id="clip0_115_284">
<rect width="64" height="64" fill="white"/>
</clipPath>
</defs>
</svg>
